<svg enable-background="new 0 0 473.4 446.2" viewBox="0 0 473.4 446.2" xmlns="http://www.w3.org/2000/svg"><g fill="#fff"><path d="m249.9 96.3h16.1 1.8s7.2 15.2 10 21.6c5 11.2 10 22.5 15 33.7 6.5 14.6 13 29.2 19.5 43.8 4.7 10.6 9.6 21.2 14.3 31.9 6.2 14 12.4 28 18.6 42 4.4 9.9 8.4 19.8 12.8 29.7.5 1.2 1.9 4.4 1.9 4.4h-17.3-1.3s-1.1-2.2-1.5-3.2c-3.4-7.4-7-14.7-9.9-22.4-6.2-16.2-17-27.9-32.6-35.5-12-5.9-24.5-9.4-37.9-9-13.2.4-25.1 5-35.6 12.8-5.3 3.9-8.4 10-10.3 16.2-3.4 10.8-6.5 21.7-9.5 32.6-1.1 3.9-2.5 8.3-2.5 8.3s-3.7.2-8.5.2c-3.1 0-6.3 0-9.8 0 .9-3.7 1.7-6.1 3.1-10.4 4.8-13.8 9.7-27.6 14.7-41.3 8.5-23.6 17.1-47.2 25.6-70.9 1.9-5.3 3.8-10.6 5.6-16 1-3 .9-3.2-2.1-4.4-22.6-8.8-44.4-6.9-64.8 6.2-15 9.6-24.8 23.4-31 39.9-3.2 8.4-5 17.1-6.2 26.1-1 7.7-1.2 15.3-.6 22.9 1.8 22.4 8.9 42.9 24.7 59.6 11.1 11.7 24.6 19.2 40.5 21.8 17.9 2.9 34.3-1.8 49.2-11.7 7.4-4.9 13-11.3 15.4-20.2.6-2.2.7-4.3.7-6.4 0-17.8 0-60.3 0-60.3h16.4s-.1 52.9.1 76.4c0 3.7-1.1 6.3-3.8 8.7-7 6.2-15.4 9.9-24.1 12.6-15.2 4.7-30.8 6.8-46.7 6.3-8.7-.3-17.1-2.1-25.4-4.5-9-2.7-17.2-7-24.8-12.5-14-10.1-24-23.3-30.4-39.3-5-12.5-7.1-25.4-7.3-38.9s2-26.5 6.7-39.1c3.7-10 9.2-19.2 16.5-27.2 8.6-9.5 18.6-17.2 30.4-22.2 10.3-4.4 21-7.2 32.3-7.6 4.1-.1 8.2-.1 12.3-.1 7.5.1 14.9 1.1 22.2 2.7 3.5.8 3.9.6 5.1-2.8 4.9-13.6 9.7-27.3 14.7-40.8.4-1 1.5-4.2 1.5-4.2zm65.1 149.8c-.9-5.4-3.2-8.9-4.9-12.7-8-17.9-16-35.9-24-53.8-3.4-7.6-6.8-15.2-10.2-22.8-5-11.2-10-22.5-15.1-33.7-.9-1.9-1.5-4.7-3.9-4.6-2.9.1-3 3.2-3.7 5.3-5 16-8.8 32.3-14 48.3-2.5 7.6-4.3 15.4-6.4 23-2.7 9.6-5.5 19.1-8.3 28.7-.5 1.9-1.2 3.8.5 5.5 1.7-.2 3.1-.7 4.4-1.4 13.6-7.2 28-7.7 42.6-4.4 12.9 2.9 24.2 9.1 34.8 16.8 2.5 1.9 5 3.5 8.2 5.8z"/><path d="m139.6 383.9c-1.2-.4-2.2-.9-2.9-1.5l1.1-2.4c.7.5 1.5 1 2.5 1.3s2 .5 3 .5c1.2 0 2.2-.2 2.8-.6s.9-.9.9-1.6c0-.5-.2-.9-.5-1.2s-.8-.6-1.3-.7c-.5-.2-1.2-.4-2.2-.6-1.3-.3-2.3-.6-3.1-.9s-1.5-.8-2-1.4c-.6-.6-.9-1.5-.9-2.6 0-.9.3-1.8.8-2.5s1.3-1.4 2.3-1.8 2.3-.7 3.7-.7c1 0 2 .1 3 .4s1.8.6 2.6 1.1l-1 2.4c-.7-.4-1.5-.8-2.3-1s-1.6-.3-2.3-.3c-1.2 0-2.1.2-2.7.6s-.9 1-.9 1.7c0 .5.2.9.5 1.2s.8.5 1.3.7 1.2.4 2.2.6c1.2.3 2.3.6 3.1.9s1.5.8 2.1 1.4.9 1.5.9 2.6c0 .9-.3 1.8-.8 2.5-.5.8-1.3 1.4-2.3 1.8s-2.3.7-3.7.7-2.6-.2-3.9-.6z"/><path d="m156.8 370.1h-5.6v-2.6h14.3v2.6h-5.6v14.2h-3.1z"/><path d="m169.7 382.5c-1.3-1.3-1.9-3.2-1.9-5.6v-9.5h3.1v9.4c0 3.3 1.4 4.9 4.3 4.9 2.8 0 4.2-1.6 4.2-4.9v-9.4h3.1v9.5c0 2.4-.6 4.3-1.9 5.6s-3.1 2-5.4 2c-2.4 0-4.2-.7-5.5-2z"/><path d="m187.1 367.4h7.3c1.8 0 3.4.3 4.8 1s2.5 1.7 3.2 3c.8 1.3 1.2 2.7 1.2 4.4s-.4 3.1-1.2 4.4-1.8 2.3-3.2 3-3 1-4.8 1h-7.3zm7.2 14.2c1.2 0 2.3-.2 3.3-.7s1.7-1.1 2.2-2 .8-1.9.8-3c0-1.2-.3-2.2-.8-3-.5-.9-1.2-1.5-2.2-2-.9-.5-2-.7-3.3-.7h-4.1v11.5z"/><path d="m207.3 367.4h3.1v16.8h-3.1z"/><path d="m218.5 383.4c-1.4-.7-2.5-1.8-3.2-3.1-.8-1.3-1.2-2.8-1.2-4.4s.4-3.1 1.2-4.4 1.9-2.4 3.2-3.1c1.4-.7 2.9-1.1 4.6-1.1s3.3.4 4.6 1.1 2.5 1.8 3.2 3.1c.8 1.3 1.2 2.8 1.2 4.4s-.4 3.1-1.2 4.4-1.9 2.3-3.2 3.1-2.9 1.1-4.6 1.1-3.2-.4-4.6-1.1zm7.7-2.4c.9-.5 1.6-1.2 2.1-2.1s.8-1.9.8-3-.3-2.1-.8-3-1.2-1.6-2.1-2.1-1.9-.8-3-.8-2.1.3-3 .8-1.6 1.2-2.1 2.1-.8 1.9-.8 3 .3 2.1.8 3 1.2 1.6 2.1 2.1 1.9.8 3 .8c1 0 2.1-.3 3-.8z"/><path d="m242.8 367.4h3.1v14.2h8.8v2.6h-11.9z"/><path d="m270 381.6v2.6h-12.6v-16.8h12.3v2.6h-9.1v4.4h8.1v2.6h-8.1v4.6z"/><path d="m285 375.7h3v6.7c-.9.7-1.9 1.2-3 1.6-1.2.4-2.3.6-3.6.6-1.7 0-3.3-.4-4.6-1.1s-2.5-1.8-3.2-3.1c-.8-1.3-1.2-2.8-1.2-4.4s.4-3.1 1.2-4.4 1.9-2.3 3.3-3.1c1.4-.7 2.9-1.1 4.7-1.1 1.4 0 2.7.2 3.8.7 1.2.5 2.1 1.1 2.9 2l-2 1.9c-1.3-1.3-2.8-1.9-4.6-1.9-1.2 0-2.2.2-3.2.7s-1.6 1.2-2.2 2.1c-.5.9-.8 1.9-.8 3.1 0 1.1.3 2.1.8 3s1.2 1.6 2.2 2.1 2 .8 3.1.8c1.3 0 2.5-.3 3.5-.9z"/><path d="m303.2 380.4h-8.4l-1.7 3.9h-3.2l7.6-16.8h3.1l7.6 16.8h-3.3zm-1.1-2.5-3.2-7.3-3.1 7.3z"/><path d="m310.4 367.4h3.1v14.2h8.8v2.6h-11.9z"/><path d="m337.6 381.6v2.6h-12.6v-16.8h12.3v2.6h-9.1v4.4h8.1v2.6h-8.1v4.6z"/><path d="m62.3 61.7v318.7h46.9v-4h-42.9v-310.7h340.8v310.7h-40.1v4h44.1v-318.7z"/></g></svg>